<svg width="800" height="800" viewBox="0 0 800 800" fill="none" xmlns="http://www.w3.org/2000/svg">
<path d="M678.571 378.572H397.857C392.939 354.351 379.799 332.576 360.663 316.935C341.527 301.294 317.572 292.75 292.857 292.75C268.142 292.75 244.188 301.294 225.052 316.935C205.916 332.576 192.775 354.351 187.857 378.572H121.429C115.745 378.572 110.295 380.829 106.276 384.848C102.258 388.867 100 394.317 100 400C100 405.683 102.258 411.134 106.276 415.153C110.295 419.171 115.745 421.429 121.429 421.429H187.857C192.775 445.649 205.916 467.425 225.052 483.065C244.188 498.706 268.142 507.251 292.857 507.251C317.572 507.251 341.527 498.706 360.663 483.065C379.799 467.425 392.939 445.649 397.857 421.429H678.571C684.255 421.429 689.705 419.171 693.724 415.153C697.742 411.134 700 405.683 700 400C700 394.317 697.742 388.867 693.724 384.848C689.705 380.829 684.255 378.572 678.571 378.572ZM292.857 464.286C280.143 464.286 267.714 460.516 257.142 453.452C246.57 446.388 238.331 436.348 233.465 424.601C228.599 412.855 227.326 399.929 229.807 387.459C232.287 374.989 238.41 363.534 247.4 354.543C256.391 345.553 267.845 339.43 280.316 336.95C292.786 334.469 305.712 335.742 317.458 340.608C329.205 345.474 339.245 353.713 346.309 364.285C353.373 374.857 357.143 387.286 357.143 400C357.143 417.05 350.37 433.401 338.314 445.457C326.258 457.513 309.907 464.286 292.857 464.286Z" fill="black"/>
</svg>
