<?xml version="1.0" encoding="UTF-8"?>
<svg id="Layer_1_Image" data-name="Layer 1 Image" xmlns="http://www.w3.org/2000/svg" width="1000.08" height="799.92" viewBox="0 0 1000.08 799.92">
  <polygon points="0 .48 0 0 1000.08 0 1000.08 .48 .96 .48 0 .48" style="fill: #f7f7f8;"/>
  <path d="M573.46,389.64c.81.75.9,2.21.96,3.36,4.37,24.24-10.09,52.63-29.31,66.9-44.93,33.35-110.59,6.83-118.01-48.66-.06-.69.1-1.01.48-.96l1.41,1.27c12.45,36.99,66.31,30.66,70.48-7.99.34-13.91,3.65-25.15,15.27-34.06,20.35-15.6,53.69-5.73,58.72,20.14Z" style="fill: #253775;"/>
  <path d="M573.94,389.16c0,.44,0,.62-.48.48-8.72-29.14-47.26-36.38-65.46-11.96-6.86,9.21-6.41,14.45-7.49,25.15-4.17,41.63-61.19,47.04-72.94,7.44-.71-.83-1.03-1.95-.96-3.36-3.88-21.04,8.03-47.62,23.51-61.67,44.23-40.13,114.91-15.01,123.82,43.91Z" style="fill: #e71d2f;"/>
  <path d="M429.32,279.79l9.28,8.36-56.86,61.65c-2.19-2.78-6.49-5.07-8.43-7.89-.29-.42-.69-.65-.24-1.21l56.24-60.91Z" style="fill: #414142;"/>
  <path d="M571.37,279.79l56.59,60.91c.45.56.05.79-.24,1.21-1.94,2.82-6.24,5.11-8.43,7.89l-56.86-61.65,8.93-8.36Z" style="fill: #414142;"/>
  <path d="M441.31,290.81c.61-.13,8.25,7.24,9.19,8.37l-.43.88-56.29,60.78c-2.22-2.74-6.53-5.08-8.46-7.89-.29-.42-.69-.65-.24-1.21l56.23-60.93Z" style="fill: #414142;"/>
  <path d="M393.78,439.56l56.29,60.78c.2.37.54.64.32,1.12-.98,2.16-6.94,5.54-8.42,7.93l-56.89-60.73c-.45-.56-.05-.79.24-1.21,1.93-2.81,6.24-5.15,8.46-7.89Z" style="fill: #414142;"/>
  <path d="M559.37,290.83l27.52,29.48-8.87,8.87-27.41-29.72c-.28-1.14,7.62-7.14,8.75-8.63Z" style="fill: #414143;"/>
  <path d="M606.83,439.55c1.44.93,9.49,7.78,9.31,8.81l-27.49,29.06-8.93-8.33,27.11-29.54Z" style="fill: #414143;"/>
  <path d="M619.29,450.59c1.09,1.53,9.06,7.55,8.84,8.8l-26.67,29.02c-.91.17-9.34-7.45-9.22-8.23l27.05-29.59Z" style="fill: #414143;"/>
  <path d="M589.16,483.27c.79-.2,4.55,3.19,5.43,4.02.68.64,3.87,3.57,3.77,4.24l-26.98,29.09-8.93-8.36,26.72-28.98Z" style="fill: #414143;"/>
  <path d="M589.06,322.95l27.08,29.09c.22,1.23-7.79,7.35-8.88,8.8l-27.07-29.01,8.87-8.87Z" style="fill: #414143;"/>
  <path d="M577.13,472.21c.74-.13,8.54,6.94,9.26,8.3l-27.02,29.06c-1.14-1.49-9.04-7.49-8.75-8.63l26.51-28.73Z" style="fill: #414143;"/>
  <path d="M381.75,450.59l26.45,28.77c.3.56.03.79-.26,1.22-1.86,2.77-6.26,5.23-8.44,7.9l-26.6-29.09c-.22-1.25,7.75-7.27,8.84-8.8Z" style="fill: #414143;"/>
  <path d="M402.63,490.91c3.16-1.84,5.68-5.15,8.63-7.48h.95s26.39,28.82,26.39,28.82l-8.63,8.19h-.95s-26.39-29.52-26.39-29.52Z" style="fill: #414143;"/>
  <path d="M.96.48v799.44h-.96V.48C.14.07.73.14.96.48Z" style="fill: #f1f1f2;"/>
  <path d="M416.6,268.79c.44-.25.96-.05,1.38.17.51.28,7.71,6.95,7.94,7.45.24.53.37.9,0,1.42l-56.16,60.94c-1.16-1.64-8.94-7.37-8.81-8.78l.48-.97,55.18-60.23Z" style="fill: #414142;"/>
  <path d="M416.6,531.61l-55.18-60.23-.48-.97c-.13-1.42,7.65-7.15,8.81-8.78l56.16,60.94c.37.52.24.89,0,1.42-.23.49-7.42,7.17-7.94,7.45-.42.22-.94.42-1.38.17Z" style="fill: #414142;"/>
  <path d="M612.57,299.92l27.41,29.73c.3.56.03.79-.26,1.22-1.87,2.79-6.3,5.14-8.44,7.9l-27.58-29.98,8.87-8.87Z" style="fill: #414143;"/>
  <path d="M584.44,531.61c-.44.25-.96.05-1.38-.17-.51-.28-7.71-6.95-7.94-7.45-.17-.37-.35-.68-.17-1.09l26.97-28.58c1.32.93,9.09,7.39,8.93,8.27l-26.42,29.03Z" style="fill: #414143;"/>
  <path d="M631.29,461.63c2.14,2.76,6.57,5.11,8.44,7.9.29.43.56.66.26,1.22l-26.87,28.75-8.93-8.33,27.1-29.53Z" style="fill: #414143;"/>
  <path d="M584.44,268.79l25.44,28.09-.17,1.12-8.24,7.64-26.52-28.13c-.17-.42,0-.72.17-1.09.23-.5,7.42-7.17,7.94-7.45.42-.22.94-.42,1.38-.17Z" style="fill: #414143;"/>
  <path d="M427.58,410.28l-.48.96c-.16-1.2-.89-2.74-.48-4.32.15.79.69,2.45.96,3.36Z" style="fill: #5e4371;"/>
  <path d="M574.42,393c-.14-.78-.69-2.46-.96-3.36l.48-.48c.16,1.05.89,2.39.48,3.84Z" style="fill: #c9464d;"/>
</svg>
