<?xml version="1.0" encoding="UTF-8"?>
<svg id="Layer_1_xA0_Image" xmlns="http://www.w3.org/2000/svg" version="1.1" viewBox="0 0 474.8 473.99">
  <!-- Generator: Adobe Illustrator 29.1.0, SVG Export Plug-In . SVG Version: 2.1.0 Build 142)  -->
  <defs>
    <style>
      .st0 {
        fill: #f7f7f8;
      }

      .st1 {
        fill: #e71d2f;
      }

      .st2 {
        fill: #414142;
      }

      .st3 {
        fill: #fefdfd;
      }

      .st4 {
        fill: #414143;
      }

      .st5 {
        fill: #5e4371;
      }

      .st6 {
        fill: #f1f1f2;
      }

      .st7 {
        fill: #253775;
      }

      .st8 {
        fill: #c9464d;
      }
    </style>
  </defs>
  <path class="st6" d="M-262.18-162.59v799.44h-.96V-162.59c.14-.41.73-.34.96,0Z"/>
  <polygon class="st0" points="-263.14 -162.59 -263.14 -163.07 736.94 -163.07 736.94 -162.59 -262.18 -162.59 -263.14 -162.59"/>
  <path class="st3" d="M227.68.22c183.85-7.8,306.87,190.29,217.09,351.92-83.96,151.15-297.48,164.46-399.26,24.3C-65.86,223.08,39.52,8.2,227.68.22Z"/>
  <path class="st7" d="M310.32,226.57c.81.75.9,2.21.96,3.36,4.37,24.24-10.09,52.63-29.31,66.9-44.93,33.35-110.59,6.83-118.01-48.66-.06-.69.1-1.01.48-.96l1.41,1.27c12.45,36.99,66.31,30.66,70.48-7.99.34-13.91,3.65-25.15,15.27-34.06,20.35-15.6,53.69-5.73,58.72,20.14Z"/>
  <path class="st1" d="M310.8,226.09c0,.44,0,.62-.48.48-8.72-29.14-47.26-36.38-65.46-11.96-6.86,9.21-6.41,14.45-7.49,25.15-4.17,41.63-61.19,47.04-72.94,7.44-.71-.83-1.03-1.95-.96-3.36-3.88-21.04,8.03-47.62,23.51-61.67,44.23-40.13,114.91-15.01,123.82,43.91Z"/>
  <path class="st2" d="M153.46,105.72c.44-.25.96-.05,1.38.17.51.28,7.71,6.95,7.94,7.45.24.53.37.9,0,1.42l-56.16,60.94c-1.16-1.64-8.94-7.37-8.81-8.78l.48-.97,55.18-60.23Z"/>
  <path class="st2" d="M166.18,116.72l9.28,8.36-56.86,61.65c-2.19-2.78-6.49-5.07-8.43-7.89-.29-.42-.69-.65-.24-1.21l56.24-60.91Z"/>
  <path class="st2" d="M308.23,116.72l56.59,60.91c.45.56.05.79-.24,1.21-1.94,2.82-6.24,5.11-8.43,7.89l-56.86-61.65,8.93-8.36Z"/>
  <path class="st2" d="M153.46,368.54l-55.18-60.23-.48-.97c-.13-1.42,7.65-7.15,8.81-8.78l56.16,60.94c.37.52.24.89,0,1.42-.23.49-7.42,7.17-7.94,7.45-.42.22-.94.42-1.38.17Z"/>
  <path class="st2" d="M178.17,127.74c.61-.13,8.25,7.24,9.19,8.37l-.43.88-56.29,60.78c-2.22-2.74-6.53-5.08-8.46-7.89-.29-.42-.69-.65-.24-1.21l56.23-60.93Z"/>
  <path class="st2" d="M130.64,276.5l56.29,60.78c.2.37.54.64.32,1.12-.98,2.16-6.94,5.54-8.42,7.93l-56.89-60.73c-.45-.56-.05-.79.24-1.21,1.93-2.81,6.24-5.15,8.46-7.89Z"/>
  <path class="st4" d="M349.43,136.85l27.41,29.73c.3.56.03.79-.26,1.22-1.87,2.79-6.3,5.14-8.44,7.9l-27.58-29.98,8.87-8.87Z"/>
  <path class="st4" d="M296.23,127.76l27.52,29.48-8.87,8.87-27.41-29.72c-.28-1.14,7.62-7.14,8.75-8.63Z"/>
  <path class="st4" d="M343.69,276.48c1.44.93,9.49,7.78,9.31,8.81l-27.49,29.06-8.93-8.33,27.11-29.54Z"/>
  <path class="st4" d="M356.15,287.52c1.09,1.53,9.06,7.55,8.84,8.8l-26.67,29.02c-.91.17-9.34-7.45-9.22-8.23l27.05-29.59Z"/>
  <path class="st4" d="M321.3,368.54c-.44.25-.96.05-1.38-.17-.51-.28-7.71-6.95-7.94-7.45-.17-.37-.35-.68-.17-1.09l26.97-28.58c1.32.93,9.09,7.39,8.93,8.27l-26.42,29.03Z"/>
  <path class="st4" d="M368.15,298.56c2.14,2.76,6.57,5.11,8.44,7.9.29.43.56.66.26,1.22l-26.87,28.75-8.93-8.33,27.1-29.53Z"/>
  <path class="st4" d="M326.02,320.2c.79-.2,4.55,3.19,5.43,4.02.68.64,3.87,3.57,3.77,4.24l-26.98,29.09-8.93-8.36,26.72-28.98Z"/>
  <path class="st4" d="M325.92,159.88l27.08,29.09c.22,1.23-7.79,7.35-8.88,8.8l-27.07-29.01,8.87-8.87Z"/>
  <path class="st4" d="M313.99,309.14c.74-.13,8.54,6.94,9.26,8.3l-27.02,29.06c-1.14-1.49-9.04-7.49-8.75-8.63l26.51-28.73Z"/>
  <path class="st4" d="M118.61,287.52l26.45,28.77c.3.56.03.79-.26,1.22-1.86,2.77-6.26,5.23-8.44,7.9l-26.6-29.09c-.22-1.25,7.75-7.27,8.84-8.8Z"/>
  <path class="st4" d="M139.49,327.84c3.16-1.84,5.68-5.15,8.63-7.48h.95s26.39,28.82,26.39,28.82l-8.63,8.19h-.95s-26.39-29.52-26.39-29.52Z"/>
  <path class="st4" d="M321.3,105.72l25.44,28.09-.17,1.12-8.24,7.64-26.52-28.13c-.17-.42,0-.72.17-1.09.23-.5,7.42-7.17,7.94-7.45.42-.22.94-.42,1.38-.17Z"/>
  <path class="st5" d="M164.44,247.21l-.48.96c-.16-1.2-.89-2.74-.48-4.32.15.79.69,2.45.96,3.36Z"/>
  <path class="st8" d="M311.28,229.93c-.14-.78-.69-2.46-.96-3.36l.48-.48c.16,1.05.89,2.39.48,3.84Z"/>
</svg>
