<?xml version="1.0" encoding="UTF-8"?>
<svg id="FLAT" xmlns="http://www.w3.org/2000/svg" viewBox="0 0 512 512">
  <defs>
    <style>
      .cls-1 {
        fill: #689cda;
      }

      .cls-2 {
        fill: #f4f4f4;
      }

      .cls-3 {
        fill: #f49971;
      }

      .cls-4 {
        fill: #ffd576;
      }

      .cls-5 {
        fill: #8c8c8c;
      }

      .cls-6 {
        fill: #e28160;
      }

      .cls-7 {
        fill: #5791d6;
      }
    </style>
  </defs>
  <circle class="cls-7" cx="256" cy="256" r="232"/>
  <rect class="cls-2" x="120" y="128" width="272" height="256"/>
  <path class="cls-3" d="M432.28418,167.71582c-4.5752,4.5752-4.5752,11.99316,0,16.56836l12.28442,12.28442c2.19702,2.19702,3.4314,5.177,3.4314,8.28418v31.4314c0,6.47046-5.24536,11.71582-11.7157,11.71582h-.00012c-10.4375,0-15.66467,12.61938-8.28418,20l19.71582,19.71582c4.5752,4.5752,4.5752,11.99316,0,16.56836l-15.43164,15.43164c-4.5752,4.5752-4.5752,11.99316,0,16.56836l28.60791,28.60791c17.29407-32.47266,27.10791-69.53394,27.10791-108.89209,0-41.46094-10.88782-80.37451-29.94238-114.05762l-25.77344,25.77344Z"/>
  <path class="cls-6" d="M256,24c-45.63239,0-88.1814,13.18359-124.06354,35.93652l8.74988,8.74976c10.66663,10.66675,27.96069,10.66675,38.62732,0l1.37268-1.37256c10.66663-10.66675,27.96069-10.66675,38.62732,0l20.68634,20.68628c5.12231,5.12231,12.06964,8,19.31372,8h17.37256c7.24414,0,14.19141-2.87769,19.31372-8,5.12231-5.12231,12.06958-8,19.31372-8h49.37256c7.24414,0,14.19141-2.87769,19.31372-8l5.64941-5.64941c-37.78186-26.67456-83.8833-42.35059-133.64941-42.35059Z"/>
  <path class="cls-4" d="M45.77667,354.22339l35.59595-35.59595c4.24341-4.24365,6.62738-9.99902,6.62738-16v-37.25488c0-6.00122-2.38397-11.75659-6.62738-16l-9.37262-9.37256c-8.83655-8.83667-8.83655-23.16357,0-32,8.83655-8.83667,8.83655-23.16357,0-32l-23.61493-23.61499c-15.59564,31.18823-24.38507,66.3728-24.38507,103.61499,0,35.11182,7.81494,68.39331,21.77667,98.22339Z"/>
  <path class="cls-4" d="M256,488c45.63232,0,88.1814-13.18359,124.06348-35.93652l-13.03406-13.03418c-4.50085-4.50073-10.60535-7.0293-16.97058-7.0293h-44.11768c-6.36523,0-12.46973-2.52856-16.97058-7.0293l-.00012-.00024c-9.37256-9.37256-24.56836-9.37256-33.94098,0l-.00006,.00024c-4.50085,4.50073-10.60535,7.0293-16.97052,7.0293h-68.1178c-6.36517,0-12.46967,2.52856-16.97052,7.0293l-16.08459,16.08472c34.81989,20.87476,75.56201,32.88599,119.11401,32.88599Z"/>
  <circle class="cls-3" cx="256" cy="256" r="40"/>
  <rect class="cls-5" x="145.37258" y="159.99982" width="45.25483" height="16.00036" transform="translate(-69.58788 167.98975) rotate(-44.99753)"/>
  <rect class="cls-5" x="185.37258" y="199.99982" width="45.25483" height="16.00036" transform="translate(-86.15642 207.9873) rotate(-44.99753)"/>
  <rect class="cls-5" x="165.37258" y="179.99982" width="45.25483" height="16.00036" transform="translate(-77.87215 187.98853) rotate(-44.99753)"/>
  <rect class="cls-5" x="345.51472" y="325.99982" width="16.97056" height="16.00036" transform="translate(-132.49008 348.12114) rotate(-44.99753)"/>
  <rect class="cls-5" x="325.51472" y="345.99982" width="16.97056" height="16.00036" transform="translate(-152.48885 339.83687) rotate(-44.99753)"/>
  <rect class="cls-5" x="305.51472" y="285.99982" width="16.97056" height="16.00036" transform="translate(-115.92153 308.12358) rotate(-44.99753)"/>
  <rect class="cls-5" x="285.51472" y="305.99982" width="16.97056" height="16.00036" transform="translate(-135.92031 299.83931) rotate(-44.99753)"/>
  <rect class="cls-5" x="325.51472" y="305.99982" width="16.97056" height="16.00036" transform="translate(-124.2058 328.12236) rotate(-44.99753)"/>
  <rect class="cls-5" x="305.51472" y="325.99982" width="16.97056" height="16.00036" transform="translate(-144.20458 319.83809) rotate(-44.99753)"/>
  <rect class="cls-5" x="159.99982" y="321.37258" width="16.00036" height="45.25483" transform="translate(-194.03867 219.54921) rotate(-45)"/>
  <rect class="cls-5" x="199.99982" y="281.37258" width="16.00036" height="45.25483" transform="translate(-154.03867 236.11775) rotate(-45)"/>
  <rect class="cls-5" x="169.99982" y="305.51472" width="16.00036" height="16.97056" transform="translate(-169.89654 217.83348) rotate(-45)"/>
  <rect class="cls-5" x="189.99982" y="325.51472" width="16.00036" height="16.97056" transform="translate(-178.18081 237.83348) rotate(-45)"/>
  <rect class="cls-5" x="285.99982" y="189.51472" width="16.00036" height="16.97056" transform="translate(-53.89654 265.88225) rotate(-45)"/>
  <rect class="cls-5" x="305.99982" y="209.51472" width="16.00036" height="16.97056" transform="translate(-62.18081 285.88225) rotate(-45)"/>
  <rect class="cls-5" x="325.99982" y="149.51472" width="16.00036" height="16.97056" transform="translate(-13.89654 282.45079) rotate(-45)"/>
  <rect class="cls-5" x="345.99982" y="169.51472" width="16.00036" height="16.97056" transform="translate(-22.18081 302.45079) rotate(-45)"/>
  <rect class="cls-5" x="315.99982" y="165.37258" width="16.00036" height="45.25483" transform="translate(-38.03867 284.16652) rotate(-45)"/>
  <path class="cls-1" d="M284.24194,250.21143c-8.74451-4.03125-19.30566-2.45093-26.21875,3.9231l-4.04633,3.73096c-6.91309,6.37402-17.47424,7.95435-26.21869,3.9231v-.00024c-5.39191-2.4856-9.38629-6.79224-11.29785-11.87549-.30304,1.98486-.46033,4.01758-.46033,6.08716,0,22.09131,17.90863,40,40,40,20.02197,0,36.60791-14.71069,39.53979-33.91309-1.91162-5.08301-5.90601-9.38965-11.29785-11.87549Z"/>
</svg>
