<svg xmlns="http://www.w3.org/2000/svg" viewBox="254 257 32 30.12">
  <path fill="#f1f1f2" d="M-262-162v799h-1V-162c0-.4.7-.3 1,0Z"/>
  <polygon fill="#f7f7f8" points="-263 -162 -263 -163 737 -163 737 -162 -262 -162 -263 -162"/>
  <path fill="#fefdfd" d="M228 0c184-8 307 190 217 352-84 151-297 164-399 24C-66 223 40 8 228 0Z"/>
  <path fill="#253775" d="M310 227c1 1 1 2 1 3 4 24-10 53-29 67-45 33-111 7-118-49 0-1 0-1 0-1l1 1c12 37 66 31 70-8 0-14 4-25 15-34 20-16 54-6 59 20Z"/>
  <path fill="#e71d2f" d="M311 226c0 0 0 0 0 0-9-29-47-36-65-12-7 9-6 14-8 25-4 42-61 47-73 7-1-1-1-2-1-3-4-21 8-48 24-62 44-40 115-15 124 44Z"/>
  <path fill="#414142" d="M153 106c0 0 1 0 1 0 1 0 8 7 8 7 0 0 0 0 0 1l-56 61c-1-2-9-7-9-9l1-1 55-60Z"/>
  <path fill="#414142" d="M166 117l9 8-57 62c-2-3-6-5-8-8 0 0 0-1 0-1l56-61Z"/>
  <path fill="#414142" d="M308 117l57 61c0 1 0 1 0 1-2 3-6 5-8 8l-57-62 9-8Z"/>
  <path fill="#414142" d="M153 369l-55-60-1-1c0-1 8-7 9-9l56 61c0 1 0 1 0 1 0 0-8 7-8 7 0 0-1 0-1 0Z"/>
  <path fill="#414142" d="M178 128c1 0 8 7 9 8l0 1-56 61c-2-3-7-5-8-8 0 0 0-1 0-1l56-61Z"/>
  <path fill="#414142" d="M131 277l56 61c0 0 0 0 0 1-1 2-7 6-8 8l-57-61c0 0 0-1 0-1 2-3 6-5 9-8Z"/>
  <path fill="#414143" d="M349 137l27 30c0 1 0 1 0 1-2 3-6 5-8 8l-28-30 9-9Z"/>
  <path fill="#414143" d="M296 128l28 29-9 9-27-30c0-1 8-7 9-9Z"/>
  <path fill="#414143" d="M344 276c1 1 9 8 9 9l-27 29-9-8 27-30Z"/>
  <path fill="#414143" d="M356 288c1 2 9 8 9 9l-27 29c-1 0-9-7-9-8l27-30Z"/>
  <path fill="#414143" d="M321 369c0 0 0 0-1 0-1 0-8-7-8-7 0 0 0 0 0-1l27-29c1 1 9 7 9 8l-26 29Z"/>
  <path fill="#414143" d="M368 299c2 3 7 5 8 8 0 0 0 0 0 1l-27 29-9-8 27-30Z"/>
  <path fill="#414143" d="M326 320c1 0 5 3 5 4 1 1 4 4 4 4l-27 29-9-8 27-29Z"/>
  <path fill="#414143" d="M326 160l27 29c0 1-8 7-9 9l-27-29 9-9Z"/>
  <path fill="#414143" d="M314 309c1 0 9 7 9 8l-27 29c-1-1-9-7-9-9l27-28Z"/>
  <path fill="#414143" d="M119 288l26 29c0 1 0 1 0 1-2 3-6 5-8 8l-27-29c0-1 8-7 9-9Z"/>
  <path fill="#414143" d="M139 328c3-2 6-5 9-7h1l26 29-9 8h-1l-26-29Z"/>
  <path fill="#414143" d="M321 106l25 28-1 1-8 8-27-28c0-1 0-1 0-1 0 0 8-7 8-7 0 0 1 0 1 0Z"/>
  <path fill="#5e4371" d="M164 247l-1 1c0-1-1-3-1-4 0 1 1 3 1 3Z"/>
  <path fill="#c9464d" d="M311 230c0-1-1-3-1-3l1-1c0 1 1 2 0 4Z"/>
</svg>
